<svg width="131" height="32" viewBox="0 0 131 32" fill="none" xmlns="http://www.w3.org/2000/svg">
<g clip-path="url(#clip0_1_1942)">
<path d="M43.8594 12.0011C45.0107 12.6196 45.9583 13.5488 46.5906 14.6792C47.2649 15.8987 47.6055 17.2695 47.5792 18.6573C47.6044 20.0503 47.2639 21.4261 46.5906 22.652C45.9584 23.7844 45.011 24.716 43.8594 25.3377C42.6488 25.9819 41.2898 26.3082 39.9136 26.2851C38.938 26.2979 37.9697 26.1185 37.0657 25.7576C36.2284 25.4484 35.4847 24.9353 34.9041 24.2664V26.2924H31.5377V5.53665H35.0732V13.0321C35.6658 12.3916 36.3954 11.8882 37.2095 11.5581C38.0703 11.2185 38.9904 11.0479 39.9178 11.056C41.2932 11.0362 42.651 11.3615 43.863 12.0011H43.8594ZM42.7201 22.1278C43.5364 21.189 43.985 19.9944 43.985 18.7592C43.985 17.524 43.5364 16.3294 42.7201 15.3906C42.305 14.9674 41.8042 14.6345 41.2502 14.4133C40.6962 14.1921 40.1012 14.0874 39.5035 14.1061C38.7021 14.094 37.9116 14.2901 37.2119 14.6746C36.5306 15.0616 35.9711 15.6258 35.5947 16.3052C35.1879 17.0573 34.9831 17.8993 35 18.7511C34.979 19.6033 35.184 20.4462 35.5947 21.197C35.9662 21.8799 36.5269 22.4453 37.2119 22.8277C37.9102 23.2155 38.7017 23.4119 39.5035 23.3962C40.1003 23.4198 40.6954 23.319 41.2497 23.1004C41.8041 22.8819 42.3052 22.5506 42.7201 22.1283" fill="white"/>
<path d="M54.0611 25.3117C52.8602 24.6926 51.8637 23.7496 51.1886 22.5934C50.4869 21.3972 50.1271 20.0368 50.147 18.6561C50.1228 17.2774 50.4828 15.9185 51.1882 14.7267C51.8695 13.5814 52.865 12.6478 54.0607 12.0329C55.3313 11.3699 56.7514 11.0328 58.1897 11.0526C59.6392 11.0305 61.0715 11.3646 62.3564 12.0247C63.5505 12.6419 64.5454 13.5749 65.2289 14.7185C65.9102 15.9214 66.2678 17.2753 66.2678 18.6521C66.2678 20.0289 65.9102 21.3828 65.2289 22.5856C64.5464 23.7363 63.5518 24.6775 62.3564 25.3042C61.0719 25.9639 59.6402 26.298 58.1912 26.2763C56.7539 26.3055 55.3328 25.9737 54.0622 25.3123L54.0611 25.3117ZM61.4172 22.0255C62.2384 21.089 62.6902 19.8935 62.6902 18.6569C62.6902 17.4203 62.2384 16.2248 61.4172 15.2883C60.9988 14.8658 60.4957 14.5334 59.9399 14.3121C59.384 14.0908 58.7875 13.9855 58.188 14.0028C57.59 13.9822 56.9944 14.0861 56.4401 14.3076C55.8857 14.5292 55.3853 14.8634 54.9714 15.2883C54.1551 16.2271 53.7066 17.4217 53.7066 18.6569C53.7066 19.8921 54.1551 21.0867 54.9714 22.0255C55.8358 22.8495 56.9924 23.3103 58.1963 23.3103C59.4002 23.3103 60.5568 22.8495 61.4212 22.0255" fill="white"/>
<path d="M78.2285 11.0539V14.3654C77.9583 14.31 77.6834 14.2798 77.4074 14.2752C76.7865 14.2736 76.1716 14.3946 75.599 14.6309C75.0265 14.8672 74.508 15.214 74.0742 15.6509C73.2453 16.593 72.8269 17.8182 72.9097 19.0613V26.2754H69.3743V11.1162H72.742V13.5745C73.3632 12.7304 74.193 12.0559 75.153 11.6149C76.113 11.1738 77.1715 10.9808 78.2285 11.0539Z" fill="white"/>
<path d="M96.8998 5.52682V26.2825H93.4987V24.1687C92.9216 24.8648 92.1795 25.4109 91.3375 25.7588C90.4334 26.1198 89.4651 26.2991 88.4894 26.2863C87.1221 26.3042 85.7728 25.9781 84.5698 25.3389C83.4182 24.7174 82.4708 23.7857 81.8387 22.6532C81.1655 21.4274 80.825 20.0515 80.8502 18.6586C80.8239 17.2707 81.1645 15.8999 81.8387 14.6803C82.4733 13.5516 83.4203 12.623 84.5698 12.0021C85.7717 11.3599 87.1217 11.0336 88.4894 11.0547C89.4275 11.0414 90.3588 11.2121 91.229 11.5569C92.0472 11.8872 92.7758 12.4006 93.3568 13.0564V5.52682H96.8998ZM91.2126 22.7415C91.8957 22.3569 92.4558 21.7921 92.8297 21.111C93.237 20.3589 93.4421 19.517 93.4255 18.6651C93.4463 17.8127 93.2409 16.9698 92.8297 16.2192C92.4582 15.5363 91.8975 14.971 91.2126 14.5886C90.507 14.2155 89.7184 14.0202 88.9173 14.0202C88.1162 14.0202 87.3276 14.2155 86.6221 14.5886C85.9408 14.9755 85.3812 15.5397 85.0049 16.2192C84.5975 16.9712 84.3924 17.8131 84.4091 18.6651C84.3885 19.5174 84.5938 20.3604 85.0049 21.111C85.3763 21.7939 85.9371 22.3593 86.6221 22.7415C87.3204 23.1295 88.1118 23.3259 88.9137 23.3102C89.7147 23.3182 90.5041 23.1223 91.2053 22.7415" fill="white"/>
<path d="M101.247 9.10156C101.048 8.91706 100.887 8.69579 100.775 8.45039C100.663 8.20499 100.601 7.94027 100.593 7.67134C100.585 7.40242 100.631 7.13456 100.728 6.88306C100.825 6.63156 100.972 6.40136 101.159 6.20559C101.188 6.17616 101.217 6.14756 101.247 6.1198C101.686 5.72085 102.267 5.50777 102.864 5.52664C103.456 5.50988 104.034 5.71281 104.481 6.09512C104.688 6.27366 104.853 6.49447 104.964 6.74215C105.076 6.98983 105.131 7.25842 105.126 7.52919C105.132 7.8144 105.079 8.09782 104.969 8.36203C104.86 8.62624 104.697 8.86565 104.49 9.06557C104.276 9.27231 104.022 9.43434 103.742 9.54189C103.463 9.64945 103.164 9.70029 102.865 9.69138C102.568 9.70556 102.272 9.6603 101.994 9.55836C101.716 9.45642 101.462 9.29994 101.248 9.09842L101.247 9.10156ZM101.072 11.0261H104.607V26.2834H101.071L101.072 11.0261Z" fill="white"/>
<path d="M111.943 25.3115C110.742 24.6925 109.745 23.7496 109.069 22.5932C108.367 21.3971 108.007 20.0367 108.026 18.6559C108.003 17.2771 108.363 15.9184 109.069 14.7267C109.751 13.5813 110.747 12.6478 111.943 12.0329C113.228 11.3938 114.649 11.0609 116.089 11.0609C117.53 11.0609 118.95 11.3938 120.236 12.0329C121.43 12.65 122.425 13.583 123.108 14.7267C123.79 15.9294 124.147 17.2834 124.147 18.6603C124.147 20.0371 123.79 21.3911 123.108 22.5938C122.426 23.7444 121.431 24.6857 120.236 25.3122C118.951 25.9722 117.519 26.3064 116.069 26.2842C114.632 26.305 113.212 25.9707 111.94 25.3122L111.943 25.3115ZM119.302 22.0253C120.124 21.0889 120.575 19.8934 120.575 18.6567C120.575 17.42 120.124 16.2246 119.302 15.2881C118.884 14.8659 118.381 14.5338 117.825 14.3127C117.269 14.0916 116.673 13.9865 116.073 14.0038C115.475 13.9832 114.88 14.087 114.325 14.3083C113.771 14.5296 113.271 14.8635 112.856 15.2881C112.04 16.227 111.592 17.4215 111.592 18.6567C111.592 19.8919 112.04 21.0865 112.856 22.0253C113.721 22.8494 114.877 23.3102 116.081 23.3102C117.285 23.3102 118.442 22.8494 119.306 22.0253" fill="white"/>
<path d="M127.02 25.6239C126.796 25.4109 126.617 25.1564 126.494 24.875C126.37 24.5936 126.304 24.291 126.3 23.9845C126.296 23.6781 126.353 23.3738 126.469 23.0892C126.585 22.8047 126.757 22.5455 126.975 22.3266C127.193 22.1077 127.453 21.9333 127.74 21.8136C128.027 21.694 128.335 21.6313 128.647 21.6292C128.959 21.6271 129.268 21.6857 129.556 21.8016C129.845 21.9174 130.107 22.0883 130.328 22.3043C130.765 22.7379 131.011 23.3232 131.013 23.9335C131.014 24.5439 130.772 25.1303 130.337 25.5663C129.903 26.0022 129.311 26.2526 128.691 26.2634C128.07 26.2742 127.47 26.0445 127.02 25.6239Z" fill="white"/>
<path d="M3.29299 0C2.55356 0.994374 2.05015 2.13905 1.81978 3.34989C1.58942 4.56073 1.63795 5.80695 1.9618 6.99692C2.28565 8.1869 2.87658 9.29038 3.69117 10.2262C4.50576 11.1621 5.52329 11.9066 6.66895 12.4049L20.2729 18.8701C21.0123 17.8757 21.5156 16.7309 21.7459 15.52C21.9762 14.3092 21.9276 13.0629 21.6036 11.8729C21.2797 10.6829 20.6886 9.57948 19.8739 8.64366C19.0592 7.70784 18.0416 6.96345 16.8958 6.46524L3.29299 0Z" fill="#0062AA"/>
<path d="M14.9185 9.32375L11.2831 14.5964L0 30.944C2.51008 32.061 5.33641 32.2875 7.99729 31.5849C10.6582 30.8822 12.9889 29.294 14.5923 27.0908L20.2714 18.862C21.0107 17.8677 21.5139 16.7232 21.7443 15.5125C21.9746 14.3018 21.9261 13.0558 21.6024 11.8659C21.2786 10.6761 20.6879 9.57274 19.8735 8.63691C19.0592 7.70108 18.0419 6.95658 16.8965 6.45812L13.7288 4.95752C14.1314 5.13354 14.4888 5.39581 14.775 5.72516C15.0613 6.05452 15.269 6.44262 15.383 6.86107C15.497 7.27952 15.5145 7.71775 15.4341 8.1437C15.3538 8.56965 15.1776 8.97254 14.9185 9.32291" fill="#0094FF"/>
</g>
<defs>
<clipPath id="clip0_1_1942">
<rect width="131" height="32" fill="white"/>
</clipPath>
</defs>
</svg>
