<svg width="19" height="21" viewBox="0 0 19 21" fill="none" xmlns="http://www.w3.org/2000/svg">
<path d="M6.58984 10.5342H7.33643C7.8055 10.527 8.17432 10.4035 8.44287 10.1636C8.71143 9.92367 8.8457 9.59961 8.8457 9.19141C8.8457 8.27474 8.38916 7.81641 7.47607 7.81641C7.04639 7.81641 6.70264 7.93994 6.44482 8.18701C6.19059 8.4305 6.06348 8.75456 6.06348 9.15918H5.06982C5.06982 8.53971 5.29541 8.02588 5.74658 7.61768C6.20133 7.20589 6.77783 7 7.47607 7C8.2137 7 8.79199 7.19515 9.21094 7.58545C9.62988 7.97575 9.83936 8.51823 9.83936 9.21289C9.83936 9.55306 9.72835 9.88249 9.50635 10.2012C9.28792 10.5199 8.98893 10.758 8.60938 10.9155C9.03906 11.0516 9.37028 11.2772 9.60303 11.5923C9.83936 11.9074 9.95752 12.2923 9.95752 12.7471C9.95752 13.4489 9.72835 14.0057 9.27002 14.4175C8.81169 14.8293 8.21549 15.0352 7.48145 15.0352C6.7474 15.0352 6.14941 14.8364 5.6875 14.439C5.22917 14.0415 5 13.5169 5 12.8652H5.99902C5.99902 13.277 6.1333 13.6064 6.40186 13.8535C6.67041 14.1006 7.03027 14.2241 7.48145 14.2241C7.96126 14.2241 8.32829 14.0988 8.58252 13.8481C8.83675 13.5975 8.96387 13.2376 8.96387 12.7686C8.96387 12.3138 8.82422 11.9647 8.54492 11.7212C8.26562 11.4777 7.86279 11.3524 7.33643 11.3452H6.58984V10.5342Z" fill="#0094FF"/>
<path d="M14.5874 14.9277H13.5884V8.30518L11.585 9.04102V8.13867L14.4316 7.06982H14.5874V14.9277Z" fill="#0094FF"/>
<path fill-rule="evenodd" clip-rule="evenodd" d="M2 2.5C1.44772 2.5 1 2.94772 1 3.5V18.5C1 19.0523 1.44772 19.5 2 19.5H17C17.5523 19.5 18 19.0523 18 18.5V3.5C18 2.94772 17.5523 2.5 17 2.5H2ZM0 3.5C0 2.39543 0.89543 1.5 2 1.5H17C18.1046 1.5 19 2.39543 19 3.5V18.5C19 19.6046 18.1046 20.5 17 20.5H2C0.89543 20.5 0 19.6046 0 18.5V3.5Z" fill="#0094FF"/>
<path fill-rule="evenodd" clip-rule="evenodd" d="M4 4C3.72386 4 3.5 3.77614 3.5 3.5V0.5C3.5 0.223858 3.72386 0 4 0C4.27614 0 4.5 0.223858 4.5 0.5V3.5C4.5 3.77614 4.27614 4 4 4Z" fill="#0094FF"/>
<path fill-rule="evenodd" clip-rule="evenodd" d="M15 4C14.7239 4 14.5 3.77614 14.5 3.5V0.5C14.5 0.223858 14.7239 0 15 0C15.2761 0 15.5 0.223858 15.5 0.5V3.5C15.5 3.77614 15.2761 4 15 4Z" fill="#0094FF"/>
</svg>
