<svg width="10" height="5" viewBox="0 0 10 5" fill="none" xmlns="http://www.w3.org/2000/svg">
<path d="M0.711897 1.09536e-06C0.878494 -0.000255617 1.03992 0.0579282 1.16814 0.164448L4.98722 3.36083L8.81319 0.273752C8.88557 0.21003 8.97007 0.161624 9.06162 0.131443C9.15316 0.101263 9.24985 0.0899308 9.34587 0.0981292C9.4419 0.106328 9.53528 0.133887 9.6204 0.17915C9.70552 0.224413 9.78062 0.286446 9.84119 0.361519C9.90176 0.436592 9.94654 0.523155 9.97285 0.616004C9.99916 0.708852 10.0064 0.80607 9.99428 0.901813C9.98211 0.997555 9.95074 1.08984 9.90204 1.17313C9.85335 1.25642 9.78834 1.32899 9.71093 1.38648L5.4356 4.8379C5.3081 4.94271 5.14825 5 4.98329 5C4.81833 5 4.65848 4.94271 4.53098 4.8379L0.255653 1.27028C0.143389 1.17556 0.0627775 1.04868 0.0246576 0.906715C-0.0134623 0.764747 -0.00726265 0.614495 0.0424227 0.476161C0.092108 0.337826 0.182897 0.218044 0.302581 0.132919C0.422266 0.0477943 0.565106 0.00140917 0.711897 1.09536e-06Z" fill="#8C939F"/>
</svg>
