<svg width="19" height="17" viewBox="0 0 19 17" fill="none" xmlns="http://www.w3.org/2000/svg">
<path d="M1 3.5H17C17.3978 3.5 17.7794 3.65804 18.0607 3.93934C18.342 4.22064 18.5 4.60218 18.5 5V15C18.5 15.3978 18.342 15.7794 18.0607 16.0607C17.7794 16.342 17.3978 16.5 17 16.5H2C1.60218 16.5 1.22064 16.342 0.93934 16.0607C0.658035 15.7794 0.5 15.3978 0.5 15V4C0.5 3.86739 0.552678 3.74021 0.646447 3.64645C0.740215 3.55268 0.867392 3.5 1 3.5V3.5Z" stroke="#8C939F" stroke-linecap="round" stroke-linejoin="round"/>
<path d="M2 0.5H9C9.39782 0.5 9.77936 0.658035 10.0607 0.93934C10.342 1.22064 10.5 1.60218 10.5 2V3C10.5 3.13261 10.4473 3.25979 10.3536 3.35355C10.2598 3.44732 10.1326 3.5 10 3.5H1C0.867392 3.5 0.740215 3.44732 0.646447 3.35355C0.552678 3.25979 0.5 3.13261 0.5 3V2C0.5 1.60218 0.658035 1.22064 0.93934 0.93934C1.22064 0.658035 1.60218 0.5 2 0.5V0.5Z" stroke="#8C939F" stroke-linecap="round" stroke-linejoin="round"/>
</svg>
