<svg width="28" height="28" viewBox="0 0 28 28" fill="none" xmlns="http://www.w3.org/2000/svg">
<g clip-path="url(#clip0_1_1914)">
<path d="M10.5898 14.5342H11.3364C11.8055 14.527 12.1743 14.4035 12.4429 14.1636C12.7114 13.9237 12.8457 13.5996 12.8457 13.1914C12.8457 12.2747 12.3892 11.8164 11.4761 11.8164C11.0464 11.8164 10.7026 11.9399 10.4448 12.187C10.1906 12.4305 10.0635 12.7546 10.0635 13.1592H9.06982C9.06982 12.5397 9.29541 12.0259 9.74658 11.6177C10.2013 11.2059 10.7778 11 11.4761 11C12.2137 11 12.792 11.1951 13.2109 11.5854C13.6299 11.9757 13.8394 12.5182 13.8394 13.2129C13.8394 13.5531 13.7284 13.8825 13.5063 14.2012C13.2879 14.5199 12.9889 14.758 12.6094 14.9155C13.0391 15.0516 13.3703 15.2772 13.603 15.5923C13.8394 15.9074 13.9575 16.2923 13.9575 16.7471C13.9575 17.4489 13.7284 18.0057 13.27 18.4175C12.8117 18.8293 12.2155 19.0352 11.4814 19.0352C10.7474 19.0352 10.1494 18.8364 9.6875 18.439C9.22917 18.0415 9 17.5169 9 16.8652H9.99902C9.99902 17.277 10.1333 17.6064 10.4019 17.8535C10.6704 18.1006 11.0303 18.2241 11.4814 18.2241C11.9613 18.2241 12.3283 18.0988 12.5825 17.8481C12.8368 17.5975 12.9639 17.2376 12.9639 16.7686C12.9639 16.3138 12.8242 15.9647 12.5449 15.7212C12.2656 15.4777 11.8628 15.3524 11.3364 15.3452H10.5898V14.5342Z" fill="#0094FF"/>
<path d="M18.5874 18.9277H17.5884V12.3052L15.585 13.041V12.1387L18.4316 11.0698H18.5874V18.9277Z" fill="#0094FF"/>
<path fill-rule="evenodd" clip-rule="evenodd" d="M6 6.5C5.44772 6.5 5 6.94772 5 7.5V22.5C5 23.0523 5.44772 23.5 6 23.5H21C21.5523 23.5 22 23.0523 22 22.5V7.5C22 6.94772 21.5523 6.5 21 6.5H6ZM4 7.5C4 6.39543 4.89543 5.5 6 5.5H21C22.1046 5.5 23 6.39543 23 7.5V22.5C23 23.6046 22.1046 24.5 21 24.5H6C4.89543 24.5 4 23.6046 4 22.5V7.5Z" fill="#0094FF"/>
<path fill-rule="evenodd" clip-rule="evenodd" d="M8 8C7.72386 8 7.5 7.77614 7.5 7.5V4.5C7.5 4.22386 7.72386 4 8 4C8.27614 4 8.5 4.22386 8.5 4.5V7.5C8.5 7.77614 8.27614 8 8 8Z" fill="#0094FF"/>
<path fill-rule="evenodd" clip-rule="evenodd" d="M19 8C18.7239 8 18.5 7.77614 18.5 7.5V4.5C18.5 4.22386 18.7239 4 19 4C19.2761 4 19.5 4.22386 19.5 4.5V7.5C19.5 7.77614 19.2761 8 19 8Z" fill="#0094FF"/>
</g>
<defs>
<clipPath id="clip0_1_1914">
<rect width="19" height="20.5" fill="white" transform="translate(4 4)"/>
</clipPath>
</defs>
</svg>
