<svg width="10" height="10" viewBox="0 0 10 10" fill="none" xmlns="http://www.w3.org/2000/svg">
<path d="M9.2185 4.2195H5.7815V0.7815C5.7815 0.574233 5.69916 0.375456 5.5526 0.228896C5.40604 0.0823364 5.20727 0 5 0C4.79273 0 4.59396 0.0823364 4.4474 0.228896C4.30084 0.375456 4.2185 0.574233 4.2185 0.7815V4.2195H0.7815C0.574233 4.2195 0.375456 4.30184 0.228896 4.4484C0.0823364 4.59496 0 4.79373 0 5.001C0 5.20827 0.0823364 5.40704 0.228896 5.5536C0.375456 5.70016 0.574233 5.7825 0.7815 5.7825H4.2195V9.2195C4.2195 9.42677 4.30184 9.62554 4.4484 9.7721C4.59496 9.91866 4.79373 10.001 5.001 10.001C5.20827 10.001 5.40704 9.91866 5.5536 9.7721C5.70016 9.62554 5.7825 9.42677 5.7825 9.2195V5.7815H9.2195C9.42677 5.7815 9.62554 5.69916 9.7721 5.5526C9.91866 5.40604 10.001 5.20727 10.001 5C10.001 4.79273 9.91866 4.59396 9.7721 4.4474C9.62554 4.30084 9.42677 4.2185 9.2195 4.2185L9.2185 4.2195Z" fill="white"/>
</svg>
