<svg width="19" height="25" viewBox="0 0 19 25" fill="none" xmlns="http://www.w3.org/2000/svg">
<path d="M16.046 3.3H13.877C13.7243 2.83366 13.4439 2.41952 13.0675 2.10467C12.6911 1.78983 12.234 1.58691 11.748 1.519C11.5647 1.07079 11.2521 0.687286 10.8501 0.417351C10.448 0.147415 9.97475 0.00326538 9.4905 0.00326538C9.00625 0.00326538 8.53296 0.147415 8.13093 0.417351C7.72889 0.687286 7.41631 1.07079 7.233 1.519C6.75062 1.59039 6.29771 1.79488 5.92515 2.1095C5.55259 2.42411 5.27515 2.83639 5.124 3.3H2.955C2.17239 3.30079 1.42199 3.61169 0.868139 4.16461C0.314284 4.71753 0.00211618 5.4674 0 6.25L0 21.816C0.000794193 22.5995 0.312379 23.3506 0.866377 23.9046C1.42037 24.4586 2.17153 24.7702 2.955 24.771H16.046C16.8293 24.7699 17.5802 24.4582 18.134 23.9043C18.6878 23.3503 18.9992 22.5993 19 21.816V6.25C18.9979 5.46757 18.6859 4.71785 18.1322 4.16496C17.5786 3.61207 16.8284 3.30106 16.046 3.3ZM6.011 4.1C6.011 3.67566 6.17957 3.26869 6.47963 2.96863C6.77969 2.66857 7.18665 2.5 7.611 2.5C7.72353 2.4992 7.8326 2.46105 7.92111 2.39155C8.00961 2.32205 8.07254 2.22513 8.1 2.116C8.17605 1.80513 8.35328 1.52837 8.60382 1.32924C8.85436 1.13011 9.16399 1.01992 9.484 1.016C9.80398 1.01118 10.116 1.11613 10.368 1.31337C10.62 1.51061 10.7968 1.78823 10.869 2.1C10.8936 2.21402 10.9568 2.31606 11.0479 2.38892C11.1389 2.46179 11.2524 2.50102 11.369 2.5H11.394C11.8183 2.5 12.2253 2.66857 12.5254 2.96863C12.8254 3.26869 12.994 3.67566 12.994 4.1V4.838H6.011V4.1ZM17.986 21.816C17.9855 22.3304 17.7809 22.8235 17.4172 23.1872C17.0535 23.5509 16.5604 23.7555 16.046 23.756H2.955C2.44064 23.7555 1.9475 23.5509 1.5838 23.1872C1.22009 22.8235 1.01553 22.3304 1.015 21.816V6.25C1.01553 5.73564 1.22009 5.24251 1.5838 4.8788C1.9475 4.51509 2.44064 4.31053 2.955 4.31H5V5.35C5 5.48473 5.05352 5.61394 5.14879 5.70921C5.24406 5.80448 5.37327 5.858 5.508 5.858H13.5C13.6347 5.858 13.7639 5.80448 13.8592 5.70921C13.9545 5.61394 14.008 5.48473 14.008 5.35V4.311H16.049C16.5634 4.31153 17.0565 4.51609 17.4202 4.8798C17.7839 5.24351 17.9885 5.73664 17.989 6.251L17.986 21.816Z" fill="#8C939F"/>
<path fill-rule="evenodd" clip-rule="evenodd" d="M14.6191 11.6175C14.8144 11.8127 14.8144 12.1293 14.6191 12.3246L8.8032 18.1406C8.70943 18.2343 8.58225 18.287 8.44964 18.287C8.31702 18.287 8.18984 18.2343 8.09608 18.1405L5.14637 15.1905C4.95112 14.9953 4.95113 14.6787 5.1464 14.4834C5.34167 14.2882 5.65826 14.2882 5.85351 14.4835L8.44966 17.0799L13.912 11.6175C14.1073 11.4222 14.4239 11.4222 14.6191 11.6175Z" fill="#8C939F"/>
</svg>
