<svg width="20" height="20" viewBox="0 0 20 20" fill="none" xmlns="http://www.w3.org/2000/svg">
<path fill-rule="evenodd" clip-rule="evenodd" d="M5.78947 1.05263C4.91745 1.05263 4.21053 1.75955 4.21053 2.63158C4.21053 3.50361 4.91745 4.21053 5.78947 4.21053H17.3684C18.2404 4.21053 18.9474 3.50361 18.9474 2.63158C18.9474 1.75955 18.2404 1.05263 17.3684 1.05263H5.78947ZM3.15789 2.63158C3.15789 1.1782 4.33609 0 5.78947 0H17.3684C18.8218 0 20 1.1782 20 2.63158C20 4.08496 18.8218 5.26316 17.3684 5.26316H5.78947C4.33609 5.26316 3.15789 4.08496 3.15789 2.63158ZM5.78947 15.7895C4.91745 15.7895 4.21053 16.4964 4.21053 17.3684C4.21053 18.2404 4.91745 18.9474 5.78947 18.9474H17.3684C18.2404 18.9474 18.9474 18.2404 18.9474 17.3684C18.9474 16.4964 18.2404 15.7895 17.3684 15.7895H5.78947ZM3.15789 17.3684C3.15789 15.915 4.33609 14.7368 5.78947 14.7368H17.3684C18.8218 14.7368 20 15.915 20 17.3684C20 18.8218 18.8218 20 17.3684 20H5.78947C4.33609 20 3.15789 18.8218 3.15789 17.3684ZM1.05263 10C1.05263 9.12797 1.75955 8.42105 2.63158 8.42105H11.0526C11.9247 8.42105 12.6316 9.12797 12.6316 10C12.6316 10.872 11.9247 11.5789 11.0526 11.5789H2.63158C1.75955 11.5789 1.05263 10.872 1.05263 10ZM2.63158 7.36842C1.1782 7.36842 0 8.54662 0 10C0 11.4534 1.1782 12.6316 2.63158 12.6316H11.0526C12.506 12.6316 13.6842 11.4534 13.6842 10C13.6842 8.54662 12.506 7.36842 11.0526 7.36842H2.63158Z" fill="#8C939F"/>
</svg>
