<svg width="12" height="12" viewBox="0 0 12 12" fill="none" xmlns="http://www.w3.org/2000/svg">
<path d="M11.8684 11.1606L8.97827 8.27009C9.8013 7.26491 10.2064 5.98175 10.1098 4.68613C10.0132 3.39052 9.42231 2.18163 8.45931 1.30965C7.49632 0.437666 6.235 -0.0306701 4.93636 0.00155962C3.63771 0.0337894 2.40117 0.564118 1.48261 1.4828C0.564045 2.40148 0.033785 3.63819 0.00155942 4.937C-0.0306661 6.23581 0.43761 7.4973 1.30948 8.46042C2.18135 9.42353 3.39008 10.0145 4.68552 10.1112C5.98097 10.2078 7.26397 9.80258 8.26901 8.97944L11.1591 11.8669C11.254 11.9547 11.3792 12.0023 11.5084 11.9999C11.6376 11.9975 11.761 11.9452 11.8525 11.854C11.9441 11.7628 11.9969 11.6397 11.9999 11.5105C12.0028 11.3812 11.9557 11.2559 11.8684 11.1606ZM5.05635 9.1167C4.25352 9.1165 3.46879 8.87821 2.80137 8.43196C2.13396 7.98571 1.61384 7.35154 1.30679 6.60966C0.99975 5.86777 0.919566 5.05148 1.07638 4.26402C1.2332 3.47656 1.61998 2.75329 2.1878 2.18567C2.75562 1.61805 3.47899 1.23158 4.26643 1.07513C5.05387 0.918682 5.87001 0.999279 6.61165 1.30673C7.35329 1.61418 7.98711 2.13468 8.43297 2.8024C8.87883 3.47012 9.11671 4.25508 9.11651 5.05801C9.11519 6.13369 8.68748 7.16496 7.92715 7.92576C7.16682 8.68657 6.13589 9.11484 5.06036 9.1167H5.05635Z" fill="#8C939F"/>
</svg>
